HIERARCHY
ROOT Hips
{
	OFFSET -14.64140 90.27770 -84.91600
	CHANNELS 6 Xposition Yposition Zposition Zrotation Xrotation Yrotation
	JOINT Spine
	{
		OFFSET 0.00000 13.20850 -1.60436
		CHANNELS 3 Zrotation Xrotation Yrotation
		JOINT Spine1
		{
			OFFSET 0.00000 8.61716 0.00000
			CHANNELS 3 Zrotation Xrotation Yrotation
			JOINT Spine2
			{
				OFFSET 0.00000 8.61717 0.00000
				CHANNELS 3 Zrotation Xrotation Yrotation
				JOINT Spine3
				{
					OFFSET 0.00000 8.61717 0.00000
					CHANNELS 3 Zrotation Xrotation Yrotation
					JOINT Neck
					{
						OFFSET 0.00000 11.07920 1.10792
						CHANNELS 3 Zrotation Xrotation Yrotation
						JOINT Neck1
						{
							OFFSET 0.00000 7.08032 0.00000
							CHANNELS 3 Zrotation Xrotation Yrotation
							JOINT Head
							{
								OFFSET 0.00000 7.08031 0.00000
								CHANNELS 3 Zrotation Xrotation Yrotation
								End site
								{
									OFFSET 0.00000 0.00000 0.00000
								}
							}
						}
					}
					JOINT RightShoulder
					{
						OFFSET -0.01000 7.91373 5.19711
						CHANNELS 3 Zrotation Xrotation Yrotation
						JOINT RightArm
						{
							OFFSET -18.41580 0.00000 0.00000
							CHANNELS 3 Zrotation Xrotation Yrotation
							JOINT RightForeArm
							{
								OFFSET -29.11090 0.00000 0.00000
								CHANNELS 3 Zrotation Xrotation Yrotation
								JOINT RightHand
								{
									OFFSET -24.65040 0.00000 0.00000
									CHANNELS 3 Zrotation Xrotation Yrotation
									JOINT RightHandThumb1
									{
										OFFSET -5.35114 -0.85590 3.97906
										CHANNELS 3 Zrotation Xrotation Yrotation
										JOINT RightHandThumb2
										{
											OFFSET -4.52789 0.00000 0.00000
											CHANNELS 3 Zrotation Xrotation Yrotation
											JOINT RightHandThumb3
											{
												OFFSET -2.46976 0.00000 0.00000
												CHANNELS 3 Zrotation Xrotation Yrotation
												End site
												{
													OFFSET 0.00000 0.00000 0.00000
												}
											}
										}
									}
									JOINT RightHandIndex1
									{
										OFFSET -14.26970 0.00000 2.88139
										CHANNELS 3 Zrotation Xrotation Yrotation
										JOINT RightHandIndex2
										{
											OFFSET -5.48836 0.00000 0.00000
											CHANNELS 3 Zrotation Xrotation Yrotation
											JOINT RightHandIndex3
											{
												OFFSET -3.01859 0.00000 0.00000
												CHANNELS 3 Zrotation Xrotation Yrotation
												End site
												{
													OFFSET 0.00000 0.00000 0.00000
												}
											}
										}
									}
									JOINT RightHandMiddle1
									{
										OFFSET -14.26970 0.00000 -0.09147
										CHANNELS 3 Zrotation Xrotation Yrotation
										JOINT RightHandMiddle2
										{
											OFFSET -6.17441 0.00000 0.00000
											CHANNELS 3 Zrotation Xrotation Yrotation
											JOINT RightHandMiddle3
											{
												OFFSET -3.56743 0.00000 0.00000
												CHANNELS 3 Zrotation Xrotation Yrotation
												End site
												{
													OFFSET 0.00000 0.00000 0.00000
												}
											}
										}
									}
									JOINT RightHandRing1
									{
										OFFSET -12.69180 0.00000 -3.06433
										CHANNELS 3 Zrotation Xrotation Yrotation
										JOINT RightHandRing2
										{
											OFFSET -5.62556 0.00000 0.00000
											CHANNELS 3 Zrotation Xrotation Yrotation
											JOINT RightHandRing3
											{
												OFFSET -3.56744 0.00000 0.00000
												CHANNELS 3 Zrotation Xrotation Yrotation
												End site
												{
													OFFSET 0.00000 0.00000 0.00000
												}
											}
										}
									}
									JOINT RightHandPinky1
									{
										OFFSET -11.11390 0.00000 -6.03719
										CHANNELS 3 Zrotation Xrotation Yrotation
										JOINT RightHandPinky2
										{
											OFFSET -4.52789 0.00000 0.00000
											CHANNELS 3 Zrotation Xrotation Yrotation
											JOINT RightHandPinky3
											{
												OFFSET -2.46976 0.00000 0.00000
												CHANNELS 3 Zrotation Xrotation Yrotation
												End site
												{
													OFFSET 0.00000 0.00000 0.00000
												}
											}
										}
									}
								}
							}
						}
					}
					JOINT LeftShoulder
					{
						OFFSET 0.01000 7.91373 5.19711
						CHANNELS 3 Zrotation Xrotation Yrotation
						JOINT LeftArm
						{
							OFFSET 18.41580 0.00000 0.00000
							CHANNELS 3 Zrotation Xrotation Yrotation
							JOINT LeftForeArm
							{
								OFFSET 29.11090 0.00000 0.00000
								CHANNELS 3 Zrotation Xrotation Yrotation
								JOINT LeftHand
								{
									OFFSET 24.65040 0.00000 0.00000
									CHANNELS 3 Zrotation Xrotation Yrotation
									JOINT LeftHandThumb1
									{
										OFFSET 5.35114 -0.85590 3.97906
										CHANNELS 3 Zrotation Xrotation Yrotation
										JOINT LeftHandThumb2
										{
											OFFSET 4.52789 0.00000 0.00000
											CHANNELS 3 Zrotation Xrotation Yrotation
											JOINT LeftHandThumb3
											{
												OFFSET 2.46977 0.00000 0.00000
												CHANNELS 3 Zrotation Xrotation Yrotation
												End site
												{
													OFFSET 0.00000 0.00000 0.00000
												}
											}
										}
									}
									JOINT LeftHandIndex1
									{
										OFFSET 14.26970 0.00000 2.88139
										CHANNELS 3 Zrotation Xrotation Yrotation
										JOINT LeftHandIndex2
										{
											OFFSET 5.48836 0.00000 0.00000
											CHANNELS 3 Zrotation Xrotation Yrotation
											JOINT LeftHandIndex3
											{
												OFFSET 3.01859 0.00000 0.00000
												CHANNELS 3 Zrotation Xrotation Yrotation
												End site
												{
													OFFSET 0.00000 0.00000 0.00000
												}
											}
										}
									}
									JOINT LeftHandMiddle1
									{
										OFFSET 14.26970 0.00000 -0.09147
										CHANNELS 3 Zrotation Xrotation Yrotation
										JOINT LeftHandMiddle2
										{
											OFFSET 6.17440 0.00000 0.00000
											CHANNELS 3 Zrotation Xrotation Yrotation
											JOINT LeftHandMiddle3
											{
												OFFSET 3.56744 0.00000 0.00000
												CHANNELS 3 Zrotation Xrotation Yrotation
												End site
												{
													OFFSET 0.00000 0.00000 0.00000
												}
											}
										}
									}
									JOINT LeftHandRing1
									{
										OFFSET 12.69180 0.00000 -3.06433
										CHANNELS 3 Zrotation Xrotation Yrotation
										JOINT LeftHandRing2
										{
											OFFSET 5.62556 0.00000 0.00000
											CHANNELS 3 Zrotation Xrotation Yrotation
											JOINT LeftHandRing3
											{
												OFFSET 3.56744 0.00000 0.00000
												CHANNELS 3 Zrotation Xrotation Yrotation
												End site
												{
													OFFSET 0.00000 0.00000 0.00000
												}
											}
										}
									}
									JOINT LeftHandPinky1
									{
										OFFSET 11.11390 0.00000 -6.03719
										CHANNELS 3 Zrotation Xrotation Yrotation
										JOINT LeftHandPinky2
										{
											OFFSET 4.52789 0.00000 0.00000
											CHANNELS 3 Zrotation Xrotation Yrotation
											JOINT LeftHandPinky3
											{
												OFFSET 2.46976 0.00000 0.00000
												CHANNELS 3 Zrotation Xrotation Yrotation
												End site
												{
													OFFSET 0.00000 0.00000 0.00000
												}
											}
										}
									}
								}
							}
						}
					}
					JOINT pCube4
					{
						OFFSET 0.00000 10.91090 1.10792
						CHANNELS 3 Zrotation Xrotation Yrotation
						End site
						{
							OFFSET 0.00000 0.00000 0.00000
						}
					}
				}
			}
		}
	}
	JOINT RightUpLeg
	{
		OFFSET -9.98441 0.00000 0.00000
		CHANNELS 3 Zrotation Xrotation Yrotation
		JOINT RightLeg
		{
			OFFSET 0.00000 -42.11790 0.00000
			CHANNELS 3 Zrotation Xrotation Yrotation
			JOINT RightFoot
			{
				OFFSET 0.00000 -45.00020 -0.00001
				CHANNELS 3 Zrotation Xrotation Yrotation
				JOINT RightForeFoot
				{
					OFFSET 0.00000 -3.74820 0.00000
					CHANNELS 3 Zrotation Xrotation Yrotation
					JOINT RightToeBase
					{
						OFFSET 0.00000 0.06325 14.43120
						CHANNELS 3 Zrotation Xrotation Yrotation
						End site
						{
							OFFSET 0.00000 0.00000 0.00000
						}
					}
				}
			}
		}
	}
	JOINT LeftUpLeg
	{
		OFFSET 9.98441 0.00000 0.00000
		CHANNELS 3 Zrotation Xrotation Yrotation
		JOINT LeftLeg
		{
			OFFSET 0.00000 -42.11800 0.00000
			CHANNELS 3 Zrotation Xrotation Yrotation
			JOINT LeftFoot
			{
				OFFSET 0.00000 -45.00070 0.00000
				CHANNELS 3 Zrotation Xrotation Yrotation
				JOINT LeftForeFoot
				{
					OFFSET 0.00000 -3.74824 0.00000
					CHANNELS 3 Zrotation Xrotation Yrotation
					JOINT LeftToeBase
					{
						OFFSET 0.00000 0.06325 14.43110
						CHANNELS 3 Zrotation Xrotation Yrotation
						End site
						{
							OFFSET 0.00000 0.00000 0.00000
						}
					}
				}
			}
		}
	}
}
MOTION
Frames: 4
Frame Time: 0.050000
-0.027813613103142138 -0.0253566958543913 0.045932083608115376 -0.03985896737022143 -0.006094991089311484 0.014764533898660358 -3.155150102578658 0.9124730273602638 -0.7367134309110464 -0.7804764463422649 3.485146512846709 0.34651026230453286 -0.79820647871998 -2.01790887539916 -2.1784122038880502 -0.9808718505648497 -0.12755750955838296 -0.9657212256596206 -1.99797659634677 11.586794116428544 4.762190849086807 -0.17408013045415127 -0.4163406096103549 10.251864675590147 -1.5845260732962014 -15.272321649892028 0.9333615105074754 -1.8929948483030317 1.298366442410168 -12.621833731833528 69.21489826354498 14.330935114287408 4.48284919851895 51.562652343180545 9.989544214897599 91.61442340699041 21.545310352759785 -0.20073727381204576 -4.343327884545432 4.538090721185346 -0.08996110468524607 -1.6348687122816896 0.03997367154372619 0.04940913470409595 -56.255993401673955 -0.023556256506391714 -0.025974616840376913 -56.26087745301281 -38.797142004119436 -0.02462635579616881 -0.004008896774721702 0.02707000257535439 0.010295211133963835 -0.01728808541081611 0.016348479708831614 0.005466499828222709 0.015051543589077324 -36.66797146031649 0.029136682928276536 0.02214818497959444 -0.009152952319864474 -0.009389048433106804 0.018763142192556554 -0.04923868467948592 -0.01462226725585624 -0.011593866127298867 -19.741935004903635 -0.02719215604648293 -0.00429205099239503 0.012614103997181323 -0.031196036557198784 0.023668483472633343 0.021852071800044306 -0.0417681359410588 0.047117252566792014 24.027209823832617 0.011706457963605218 0.031851901310787106 28.90270376487551 0.011710574626478119 -0.013112886309663322 28.89398092784572 -0.01689350308063374 0.013835742399416272 8.348177278588416 1.9289967315775758 11.606282541602473 -67.08290078996055 12.282480741130904 -20.49349061663396 -71.03128988084099 7.022041486945174 -101.95350328396106 -21.662974060843002 1.0810527612986804 -2.26744384116578 -0.5089972709854333 0.09697071997739924 -8.118117442392643 0.03773730239365641 0.026019990228186417 44.60313932942702 0.013128455247518206 -0.04436728427190607 44.569778682949575 12.450988210372726 -0.040248857219278386 0.019627013094230376 0.0015818704881757932 0.044516192499276484 -0.0010713477255762602 -0.048489884131305186 0.013591332797507644 -0.03058829362576011 11.153363433102019 -0.021707441266273227 0.0074069303218608 -0.005455528458717493 0.018035383845250916 -0.04880743199410241 -0.024450397840060936 0.017169615819092234 -0.019622307033892825 4.745899866643294 -0.048908002464788346 0.026061628363316637 -0.009606993881508378 0.03004984480821047 -0.0336073703224994 0.030523167584349576 -0.03527085781034636 -0.001196342910177662 -5.594190866034924 -0.03298928665763586 -0.04324372366551417 -6.74902405279205 0.015426512647345961 -0.02727124269033889 -6.681867052634314 -0.006494380035426121 0.04627465891764437 0.02989838352897908 0.028354334572029946 -0.031752510122494575 8.086481231559404 3.4650357927554922 -19.244744836057592 0.02223195763383292 10.410127114508004 0.02766139934441724 -5.60426825843636 -15.685017503657809 3.1576816550245574 -0.03718285574952513 0.02238911951059735 0.030361901364573722 0.007018594131070955 4.724480822858134 -0.01831483219638716 12.471894838022267 -8.214349780963317 6.9250789070531855 0.03175502425196207 46.38519917370814 0.05060135047767951 -4.3155390112649386 -14.73151136050049 -3.8019888896616902 -0.036604401120888065 -0.00472083678277261 0.04690253007201128 0.039375911601532934 -10.778795631305268 -0.015704898578890722 
-0.03965890171768142 0.005326264153609627 0.018719230798393518 0.04030015643502805 -0.029755707873688666 -0.037282586573424016 -3.1820369646098983 1.0383572702457307 -0.7801835355903065 -0.7530791834703545 3.481422079413421 0.2759173483026172 -0.8587503922700995 -1.9155853263470328 -2.206264696970851 -1.040831801295698 -0.1060472985281345 -0.9102556728658068 -1.989661409680261 11.505487203580174 4.721880180608418 -0.1768388299457087 -0.5083592840941638 10.077562511643714 -1.5454322721970906 -15.3871860643398 0.909413508366882 -1.9642555099806398 1.3278690243507345 -12.594732871012027 69.65705970641226 15.10929345678101 5.096455856033146 49.53843209146201 9.643068008994195 92.7285297864346 21.674843608052345 -0.2043628100930588 -4.451479920962123 4.57513221106802 -0.13411629607120928 -1.6216494101430163 0.04459868057364898 0.03742230146649121 -56.25174782883213 0.040182835961291484 0.03996487574977915 -56.2462275913831 -38.747256075121 0.0011325540372785767 -0.02273129456486974 -0.025488520115603222 -0.006624347549512058 -0.0309646318234205 0.03112757849728054 0.005257584687223665 0.041164176110656314 -36.66483342629018 0.023713763433361762 0.026833836725143563 0.043301375182120905 0.04714620267573625 -0.0007965147457552725 0.04157075044161724 0.02582730402147793 0.02827617935067581 -19.75121315655643 0.010421825402996894 -0.020534224222850634 0.017260390592352133 0.014921616440879956 -0.007754383047622946 -0.01434913619555901 -0.022279981464204762 -0.03325483269503556 24.024626151084618 -0.027708432075032152 0.0032917958440662784 28.88295964417402 0.013798665645845466 0.028453689980557063 28.900720720566454 -0.035804407748541496 0.020623408390371845 8.210246576833446 1.9099417593953696 11.515414798777186 -67.50001910108172 13.55482872366031 -20.71893684122443 -68.0004063211419 7.382490669595571 -100.86680673782546 -21.434485445961034 0.6031325109843813 -1.669750117651668 -0.5103080067802276 0.0501501804042644 -8.127379028622263 0.04544291902558944 -0.035575758549267526 44.59369214245504 -0.04400301718748704 -0.010590494869070335 44.59978139179748 12.427220218569385 0.00788570234228904 -0.023624147549832566 -0.024579566753151504 0.019411107912872844 -0.03821382096486198 0.04654899885363278 0.006680744107870341 0.04015538143183979 11.14975326329982 0.02020985582853053 -0.043552348209678904 0.036725199883570404 -0.014704998733803378 0.009498562881782075 0.004670698547369882 -0.020771121551195777 0.01738669204818547 4.770762066831373 0.021641707514840482 0.0061801298930905324 -0.0025553852292198075 -0.03329978413133272 0.041511878580243106 -0.039330932208606305 -0.024556901099646287 -0.034827324080535633 -5.569461885242719 -0.03626737078320717 -0.02427932597511319 -6.742081773832849 0.0305164992946122 -0.03637954642950311 -6.755489329380958 0.017927533716439077 -0.01626379485310204 0.04408191660294394 0.03323027412997035 -0.010600436443515437 8.026992610057398 3.5002425220707734 -19.176084568931667 0.019209173614689937 10.415014573822626 0.057670913713340405 -5.652311925049077 -15.653751685498841 3.157274963577976 0.002563269226810629 0.02926064973852802 -0.04930913997264224 0.023148428523861238 4.736777065415808 0.04585856234334707 12.476420337141944 -8.244454355690388 6.843067313722897 -0.018343455943186773 46.347520408186654 0.02414113684657376 -4.374818689169497 -14.750632391307795 -3.8467457405167047 0.043535305311454754 0.02205072418826316 -0.016256391064875322 -0.026683874830254858 -10.717705998855042 -0.039283166873225285 
-0.013704060305295113 0.006920984600502234 -0.028353208432687706 -0.007537632366250585 -0.02261312423055967 -0.0008221862261050766 -3.2402047370719775 0.929501656480004 -0.7700274296137563 -0.7736059096700088 3.4455671334515547 0.28053462637884724 -0.8616512750990631 -1.967912582328621 -2.2946443542222434 -0.9984898849146778 -0.1079605606833679 -0.9568826154177509 -1.8985725908731905 11.469102655927161 4.612585318962808 -0.14777681417390442 -0.5597892309244111 9.938727340359312 -1.5296809146509338 -15.47807113962613 0.8546624362246481 -2.160497062739744 1.3499804648854152 -12.602781829755633 69.61995806259645 15.210301296272647 5.250221123560767 47.87509036097514 9.034700683823772 94.0419636537463 22.100982199146127 -0.24192568729264355 -4.604725913968437 4.571230508579741 -0.17613253617019603 -1.6292926555347942 -0.012798973163927285 -0.011255757781918445 -56.23828980593529 0.032219131161537296 0.004386884931799825 -56.244744559325945 -38.78676844190322 0.01908905289778724 0.016155380682746308 0.034002541598910266 0.028043988218883452 -0.003907425023463118 -0.018787681897875066 0.029039582830395167 -0.0052559245458917445 -36.660113757993145 0.036686215457277425 -0.004046443896598299 -0.016950298046354288 0.03623520691901604 -0.035938415243765995 -0.045881270609605396 -0.005428801531608204 0.028282195704701363 -19.754437442069843 -0.04196526759605243 0.0011316665683245063 0.02922088212015478 -0.03347482615554344 -0.015192599329775718 -0.020161659029397126 -0.03338277078747187 0.012869547111155899 24.088812654421695 0.0010686682248365633 0.030027568247655075 28.86292217560228 -0.01442898622969725 -0.017202417371820964 28.838155648007007 -0.014355225255277201 -0.029919252372330934 8.358800318247756 1.9469115240588055 11.447627842783774 -67.67228916994722 13.922377874262269 -21.11282846617495 -66.29870339412473 7.3897190637443675 -99.56587197805898 -21.10133869993347 -0.06251085687568411 -0.9705023929275617 -0.5160284269683161 0.08109669384272451 -8.15352459856416 0.02349870227435212 -0.03242783269279415 44.5987666496061 -0.00037009428459338825 -0.0028517047207064685 44.54492420786578 12.477492898093278 0.03213965247092185 0.02046429842966275 0.006487663521151437 0.04122123114514773 0.0009615675560881082 -0.027885107405467322 0.012161879048662472 -0.01275666592733037 11.103063802849581 -0.04025194299347982 -0.01970693800863833 -0.043576918214662405 0.01832787026484214 0.020174987132736247 0.04186044653054805 -0.000821775926310551 0.00838292134543612 4.726617954418969 -0.028028106162960566 -0.00034490316512007216 0.034527475451656686 -0.031634223236663754 -0.030047345971199804 -0.03722751829099508 -0.007386536950233344 0.04375170062398343 -5.5523237407171395 -0.02809790723540352 0.03779475912733828 -6.7289554230102695 0.019299657457838435 0.046009346886954905 -6.763118097944381 -0.009287649394680528 0.02550129352681574 0.027054777214478073 -0.011097785141922795 -0.0315838402071676 8.029938438966965 3.4883256517201024 -19.18291327863951 -0.007866800620494595 10.408589112292175 0.00659452322218134 -5.66956777920061 -15.612243569623585 3.223580331178436 -0.01428635944530905 0.022181136729800707 0.014880084071640718 -0.046016785057065364 4.706805431871614 -0.024517344023255457 12.433186385151336 -8.257102867130456 6.889232960038363 0.008098682417155192 46.406130863748004 -0.04051897716606531 -4.357435988048585 -14.759221191106736 -3.8187586059253937 -0.015383170349216614 -0.030551729629117164 0.039923094648793025 -0.008853543637966015 -10.704383018323382 -0.032146192048201655 
-0.023646625516369826 -0.01651205972958274 -0.004209479897714996 0.017209371593696236 0.04296972850301281 -0.01018900237285164 -3.141394532955084 0.84679676092827 -0.7946143585341066 -0.7852805958992797 3.4731746657256752 0.31367232408977996 -0.8958872203443715 -2.0412758631819705 -2.410312576367141 -0.9288549589983294 -0.1447139868872059 -0.9554676226830761 -1.8910887985564127 11.44181261069686 4.551951944691974 -0.19400616612064697 -0.524781666012582 9.935464037848845 -1.5172869453263587 -15.44494073852782 0.8395900463140141 -2.4042422204495373 1.4419164160613895 -12.73867646563441 68.94124032307809 13.977399990873787 5.405092997279285 47.65275762264074 8.362282999876665 95.22907759579175 22.705473213136674 -0.2858652622977588 -4.571165036199314 4.565738094994331 -0.14790479703299875 -1.6295493671044126 -0.02859652554068283 0.01382573157377377 -56.27752880821837 -0.016138333879206813 0.013396251098797766 -56.245234381268816 -38.770427864141155 0.01001174176375502 -0.01162773413532243 0.00938595677589728 0.010497758268173223 -0.0044351349029324956 0.013059930534311648 0.008678612438176147 0.005037251900258265 -36.6995538686859 -0.008714087802399679 -0.04728237805474899 0.02930175771490352 0.036685547437480766 -0.03334026174237132 0.0415985789184307 0.009612394793365448 0.034834907252882914 -19.755700311199906 -0.01470232589476833 -0.04608817126186286 -0.0279534291037404 -0.018021132853352273 -0.04498325010854192 -0.01906410032882676 0.03351039288378946 -0.011648351452884993 24.011777683269457 -0.01350153635155214 0.008373162258785396 28.895828797851955 -0.029547201762069545 0.047753359115843816 28.850041688066774 -0.004560934461245447 -0.03707012591137482 8.624114620961498 2.01570418183555 11.309239104616282 -67.64589494849774 13.562240431190435 -21.614207909592672 -67.24039721839314 7.117066014893297 -99.17715100642047 -21.185436393760618 -0.7247888162512046 -0.36123247822178545 -0.42586521048076476 0.06769802755008462 -8.15407678824579 -0.035817557145521664 -0.01396109516422075 44.579154207962915 0.017803736449771228 0.02904402926858992 44.556578157738436 12.425277775534965 0.026964126504428726 0.003880794740552077 0.027670467680736627 0.048906240699207064 -0.021706119500354833 -0.002538915142377422 -0.041006576424378764 0.01414452333171428 11.093970466421029 0.026468733048365 -0.026672896302527383 -0.032993538751235764 -0.02810563574821592 0.016718338803031633 -0.0377116523525948 -0.03228613275974383 -0.033458746916554 4.762881731208978 -0.0452019831028921 -0.0003307080171351031 0.002466165768812934 0.037005119387522156 0.02433894330422911 0.04569348571971415 0.022280566397242987 0.049443927368222326 -5.570559862435227 -0.016565844598242934 0.03859528657074628 -6.712970842878912 -0.002930030545035519 -0.04008636852107123 -6.741996341181563 -0.037708085558542506 0.0019250895953808814 0.0387733854221138 0.015448045254316286 -0.03125754447005927 8.046424100484224 3.494359688411145 -19.208585207553867 0.03943406283260826 10.379291442947236 -0.025384923980406936 -5.635707438167202 -15.638047493544299 3.226416196396672 -0.01750284304317951 0.011770892017870786 0.027765471196068352 0.043927745862840324 4.7204362290014865 -0.04510001943474344 12.436872962431945 -8.244009519199073 6.92132847252579 -0.019881843822522453 46.371485087761386 0.022701815095085183 -4.344888042297102 -14.72190336445423 -3.8780376653185127 -0.01459162393269882 -0.029880990201062087 0.007179592039210127 0.01073597393192471 -10.765171579744614 -0.046290095113785665 
